<svg width="18" height="16" viewBox="0 0 18 16" fill="none" xmlns="http://www.w3.org/2000/svg">
<path d="M5.25 7.125H1.5C1.33424 7.125 1.17527 7.19085 1.05806 7.30806C0.940848 7.42527 0.875 7.58424 0.875 7.75V14.625C0.875 14.7908 0.940848 14.9497 1.05806 15.0669C1.17527 15.1842 1.33424 15.25 1.5 15.25H5.25M5.25 7.125V15.25M5.25 7.125L8.375 0.875C9.03804 0.875 9.67393 1.13839 10.1428 1.60723C10.6116 2.07607 10.875 2.71196 10.875 3.375V5.25H15.7109C15.8882 5.24956 16.0635 5.28706 16.225 5.35997C16.3866 5.43288 16.5306 5.53953 16.6476 5.67273C16.7645 5.80593 16.8516 5.96262 16.9029 6.13226C16.9543 6.3019 16.9687 6.48056 16.9453 6.65625L16.0078 14.1562C15.9699 14.4573 15.8237 14.7343 15.5966 14.9356C15.3695 15.1368 15.0769 15.2486 14.7734 15.25H5.25" stroke="#8D8D99" stroke-width="1.5" stroke-linecap="round" stroke-linejoin="round"/>
</svg>
